<svg width="35" height="36" viewBox="0 0 35 36" fill="none" xmlns="http://www.w3.org/2000/svg">
<path d="M17.645 14.9437C16.8236 14.9437 16.0544 15.2623 15.472 15.8447C14.8924 16.4271 14.5709 17.1963 14.5709 18.0178C14.5709 18.8392 14.8924 19.6084 15.472 20.1908C16.0544 20.7704 16.8236 21.0918 17.645 21.0918C18.4664 21.0918 19.2356 20.7704 19.818 20.1908C20.3977 19.6084 20.7191 18.8392 20.7191 18.0178C20.7191 17.1963 20.3977 16.4271 19.818 15.8447C19.5336 15.5581 19.195 15.3308 18.822 15.1761C18.4489 15.0215 18.0489 14.9424 17.645 14.9437ZM28.9716 21.4133L27.175 19.8776C27.2601 19.3556 27.3041 18.8227 27.3041 18.2925C27.3041 17.7623 27.2601 17.2266 27.175 16.7074L28.9716 15.1717C29.1073 15.0555 29.2045 14.9007 29.2501 14.728C29.2957 14.5553 29.2877 14.3727 29.2271 14.2047L29.2024 14.1333C28.7079 12.7506 27.967 11.4689 27.0156 10.3504L26.9662 10.2927C26.8506 10.1569 26.6967 10.0592 26.5245 10.0126C26.3524 9.96603 26.1702 9.97269 26.0019 10.0317L23.7712 10.8257C22.9471 10.1498 22.0295 9.6169 21.035 9.24603L20.6037 6.91368C20.5712 6.73798 20.486 6.57633 20.3594 6.45023C20.2328 6.32412 20.0708 6.23951 19.895 6.20766L19.8208 6.19392C18.3923 5.93569 16.8868 5.93569 15.4583 6.19392L15.3841 6.20766C15.2083 6.23951 15.0463 6.32412 14.9197 6.45023C14.7931 6.57633 14.7079 6.73798 14.6753 6.91368L14.2413 9.25702C13.2562 9.63084 12.3386 10.1625 11.5243 10.8311L9.27713 10.0317C9.10891 9.97222 8.92657 9.96532 8.75433 10.0119C8.5821 10.0586 8.42812 10.1565 8.31288 10.2927L8.26343 10.3504C7.31371 11.4701 6.57301 12.7514 6.07668 14.1333L6.05195 14.2047C5.92833 14.5481 6.02997 14.9327 6.30744 15.1717L8.12607 16.7238C8.0409 17.2403 7.9997 17.7678 7.9997 18.2897C7.9997 18.8172 8.0409 19.3446 8.12607 19.8556L6.31293 21.4078C6.17721 21.524 6.08007 21.6787 6.03444 21.8514C5.9888 22.0242 5.99682 22.2067 6.05745 22.3748L6.08217 22.4462C6.57941 23.828 7.3129 25.1055 8.26892 26.2291L8.31837 26.2867C8.4339 26.4226 8.58788 26.5202 8.76001 26.5668C8.93214 26.6134 9.11435 26.6068 9.28263 26.5477L11.5298 25.7483C12.3485 26.4214 13.2605 26.9543 14.2468 27.3224L14.6808 29.6658C14.7134 29.8415 14.7986 30.0031 14.9252 30.1292C15.0518 30.2553 15.2138 30.3399 15.3896 30.3718L15.4638 30.3855C16.9063 30.6452 18.3837 30.6452 19.8263 30.3855L19.9004 30.3718C20.0763 30.3399 20.2382 30.2553 20.3648 30.1292C20.4914 30.0031 20.5767 29.8415 20.6092 29.6658L21.0405 27.3334C22.035 26.9598 22.9526 26.4296 23.7767 25.7538L26.0074 26.5477C26.1756 26.6072 26.358 26.6141 26.5302 26.5675C26.7024 26.5209 26.8564 26.423 26.9717 26.2867L27.0211 26.2291C27.9771 25.1 28.7106 23.828 29.2079 22.4462L29.2326 22.3748C29.3507 22.0341 29.2491 21.6523 28.9716 21.4133ZM17.645 22.8473C14.9775 22.8473 12.8155 20.6853 12.8155 18.0178C12.8155 15.3502 14.9775 13.1882 17.645 13.1882C20.3125 13.1882 22.4745 15.3502 22.4745 18.0178C22.4745 20.6853 20.3125 22.8473 17.645 22.8473Z" fill="#B8B8B8"/>
</svg>
