<svg width="35" height="36" viewBox="0 0 35 36" fill="none" xmlns="http://www.w3.org/2000/svg">
<path d="M28.6214 13.543C28.0047 12.071 27.1074 10.7331 25.9797 9.60381C24.8554 8.47256 23.5198 7.57314 22.0488 6.95664C20.5419 6.32201 18.9228 5.99669 17.2877 6.00003H17.2328C15.5697 6.00827 13.9616 6.33814 12.447 6.98687C10.9886 7.6097 9.66556 8.51071 8.5518 9.63954C7.43501 10.7663 6.54806 12.0995 5.94036 13.5649C5.30953 15.0888 4.98989 16.7235 5.00024 18.3727C5.00849 20.2805 5.4648 22.1744 6.31696 23.8678V28.0461C6.31696 28.7443 6.88323 29.3105 7.5787 29.3105H11.7515C13.4527 30.169 15.33 30.6207 17.2355 30.63H17.2932C18.9371 30.63 20.5287 30.3111 22.0296 29.6871C23.4931 29.078 24.8237 28.1891 25.9467 27.0702C27.0793 25.9459 27.9699 24.6319 28.5939 23.1668C29.2399 21.6494 29.5698 20.0358 29.578 18.37C29.5835 16.6959 29.2591 15.0713 28.6214 13.543ZM11.801 19.6345C11.0753 19.6345 10.4843 19.0435 10.4843 18.315C10.4843 17.5866 11.0753 16.9955 11.801 16.9955C12.5267 16.9955 13.1177 17.5866 13.1177 18.315C13.1177 19.0435 12.5294 19.6345 11.801 19.6345ZM17.2877 19.6345C16.562 19.6345 15.971 19.0435 15.971 18.315C15.971 17.5866 16.562 16.9955 17.2877 16.9955C18.0135 16.9955 18.6045 17.5866 18.6045 18.315C18.6045 19.0435 18.0135 19.6345 17.2877 19.6345ZM22.7745 19.6345C22.0488 19.6345 21.4578 19.0435 21.4578 18.315C21.4578 17.5866 22.0488 16.9955 22.7745 16.9955C23.5002 16.9955 24.0912 17.5866 24.0912 18.315C24.0912 19.0435 23.5002 19.6345 22.7745 19.6345Z" fill="#B8B8B8"/>
</svg>
