<svg width="35" height="36" viewBox="0 0 35 36" fill="none" xmlns="http://www.w3.org/2000/svg">
<path d="M17.645 14.9434C16.8236 14.9434 16.0544 15.2621 15.472 15.8445C14.8924 16.4269 14.5709 17.1961 14.5709 18.0175C14.5709 18.8389 14.8924 19.6081 15.472 20.1905C16.0544 20.7702 16.8236 21.0916 17.645 21.0916C18.4664 21.0916 19.2356 20.7702 19.818 20.1905C20.3977 19.6081 20.7191 18.8389 20.7191 18.0175C20.7191 17.1961 20.3977 16.4269 19.818 15.8445C19.5336 15.5578 19.195 15.3306 18.822 15.1759C18.4489 15.0212 18.0489 14.9422 17.645 14.9434ZM28.9716 21.413L27.175 19.8773C27.2601 19.3554 27.3041 18.8224 27.3041 18.2922C27.3041 17.762 27.2601 17.2263 27.175 16.7071L28.9716 15.1714C29.1073 15.0553 29.2045 14.9005 29.2501 14.7278C29.2957 14.555 29.2877 14.3725 29.2271 14.2044L29.2024 14.133C28.7079 12.7503 27.967 11.4687 27.0156 10.3501L26.9662 10.2925C26.8506 10.1566 26.6967 10.059 26.5245 10.0124C26.3524 9.96579 26.1702 9.97245 26.0019 10.0315L23.7712 10.8254C22.9471 10.1496 22.0295 9.61665 21.035 9.24579L20.6037 6.91344C20.5712 6.73773 20.486 6.57609 20.3594 6.44998C20.2328 6.32387 20.0708 6.23927 19.895 6.20741L19.8208 6.19368C18.3923 5.93544 16.8868 5.93544 15.4583 6.19368L15.3841 6.20741C15.2083 6.23927 15.0463 6.32387 14.9197 6.44998C14.7931 6.57609 14.7079 6.73773 14.6753 6.91344L14.2413 9.25677C13.2562 9.6306 12.3386 10.1623 11.5243 10.8309L9.27713 10.0315C9.10891 9.97198 8.92657 9.96508 8.75433 10.0117C8.5821 10.0583 8.42812 10.1562 8.31288 10.2925L8.26343 10.3501C7.31371 11.4699 6.57301 12.7512 6.07668 14.133L6.05195 14.2044C5.92833 14.5478 6.02997 14.9324 6.30744 15.1714L8.12607 16.7236C8.0409 17.2401 7.9997 17.7675 7.9997 18.2895C7.9997 18.8169 8.0409 19.3444 8.12607 19.8554L6.31293 21.4075C6.17721 21.5237 6.08007 21.6785 6.03444 21.8512C5.9888 22.0239 5.99682 22.2065 6.05745 22.3745L6.08217 22.446C6.57941 23.8278 7.3129 25.1052 8.26892 26.2288L8.31837 26.2865C8.4339 26.4223 8.58788 26.52 8.76001 26.5666C8.93214 26.6132 9.11435 26.6065 9.28263 26.5475L11.5298 25.7481C12.3485 26.4211 13.2605 26.9541 14.2468 27.3222L14.6808 29.6655C14.7134 29.8412 14.7986 30.0029 14.9252 30.129C15.0518 30.2551 15.2138 30.3397 15.3896 30.3715L15.4638 30.3853C16.9063 30.6449 18.3837 30.6449 19.8263 30.3853L19.9004 30.3715C20.0763 30.3397 20.2382 30.2551 20.3648 30.129C20.4914 30.0029 20.5767 29.8412 20.6092 29.6655L21.0405 27.3332C22.035 26.9596 22.9526 26.4294 23.7767 25.7535L26.0074 26.5475C26.1756 26.607 26.358 26.6139 26.5302 26.5673C26.7024 26.5206 26.8564 26.4227 26.9717 26.2865L27.0211 26.2288C27.9771 25.0997 28.7106 23.8278 29.2079 22.446L29.2326 22.3745C29.3507 22.0339 29.2491 21.652 28.9716 21.413ZM17.645 22.847C14.9775 22.847 12.8155 20.685 12.8155 18.0175C12.8155 15.35 14.9775 13.188 17.645 13.188C20.3125 13.188 22.4745 15.35 22.4745 18.0175C22.4745 20.685 20.3125 22.847 17.645 22.847Z" fill="#54B848"/>
</svg>
