<svg width="35" height="36" viewBox="0 0 35 36" fill="none" xmlns="http://www.w3.org/2000/svg">
<path d="M28.6216 13.543C28.0049 12.071 27.1077 10.7331 25.98 9.60381C24.8556 8.47256 23.52 7.57314 22.0491 6.95664C20.5422 6.32201 18.9231 5.99669 17.288 6.00003H17.233C15.5699 6.00827 13.9618 6.33814 12.4472 6.98687C10.9888 7.6097 9.66581 8.51071 8.55204 9.63954C7.43526 10.7663 6.54831 12.0995 5.94061 13.5649C5.30978 15.0888 4.99014 16.7235 5.00049 18.3727C5.00873 20.2805 5.46505 22.1744 6.3172 23.8678V28.0461C6.3172 28.7443 6.88347 29.3105 7.57894 29.3105H11.7517C13.453 30.169 15.3303 30.6207 17.2358 30.63H17.2935C18.9373 30.63 20.5289 30.3111 22.0298 29.6871C23.4934 29.078 24.8239 28.1891 25.947 27.0702C27.0795 25.9459 27.9701 24.6319 28.5941 23.1668C29.2401 21.6494 29.57 20.0358 29.5782 18.37C29.5837 16.6959 29.2594 15.0713 28.6216 13.543ZM11.8012 19.6345C11.0755 19.6345 10.4845 19.0435 10.4845 18.315C10.4845 17.5866 11.0755 16.9955 11.8012 16.9955C12.5269 16.9955 13.1179 17.5866 13.1179 18.315C13.1179 19.0435 12.5297 19.6345 11.8012 19.6345ZM17.288 19.6345C16.5623 19.6345 15.9713 19.0435 15.9713 18.315C15.9713 17.5866 16.5623 16.9955 17.288 16.9955C18.0137 16.9955 18.6047 17.5866 18.6047 18.315C18.6047 19.0435 18.0137 19.6345 17.288 19.6345ZM22.7748 19.6345C22.0491 19.6345 21.458 19.0435 21.458 18.315C21.458 17.5866 22.0491 16.9955 22.7748 16.9955C23.5005 16.9955 24.0915 17.5866 24.0915 18.315C24.0915 19.0435 23.5005 19.6345 22.7748 19.6345Z" fill="#54B848"/>
</svg>
