<svg width="23" height="24" viewBox="0 0 23 24" fill="none" xmlns="http://www.w3.org/2000/svg">
<g clip-path="url(#clip0_408_685)">
<path d="M11.0619 15.1783C10.2649 15.179 9.48008 14.974 8.77773 14.5815C8.07538 14.1891 7.47735 13.6214 7.03711 12.9293L8.18665 12.1337C8.50133 12.628 8.92857 13.0335 9.43026 13.314C9.93195 13.5945 10.4925 13.7413 11.0619 13.7413C11.6313 13.7413 12.1918 13.5945 12.6935 13.314C13.1952 13.0335 13.6224 12.628 13.9371 12.1337L15.0866 12.9293C14.6464 13.6214 14.0484 14.1891 13.346 14.5815C12.6437 14.974 11.8589 15.179 11.0619 15.1783ZM13.8219 7.27205C13.5489 7.27205 13.2821 7.35635 13.0552 7.51431C12.8283 7.67226 12.6514 7.89677 12.5469 8.15944C12.4425 8.42211 12.4151 8.71114 12.4684 8.98999C12.5216 9.26884 12.6531 9.52497 12.8461 9.72601C13.0391 9.92705 13.285 10.064 13.5527 10.1194C13.8203 10.1749 14.0978 10.1464 14.35 10.0376C14.6021 9.92882 14.8177 9.74457 14.9693 9.50818C15.1209 9.27178 15.2019 8.99386 15.2019 8.70955C15.2037 8.52024 15.1693 8.33245 15.1006 8.15717C15.0319 7.9819 14.9303 7.82267 14.8018 7.6888C14.6733 7.55493 14.5204 7.44911 14.3522 7.37755C14.1839 7.30599 14.0036 7.27012 13.8219 7.27205ZM8.30188 7.27205C8.02894 7.27205 7.76213 7.35635 7.53519 7.51431C7.30825 7.67226 7.13137 7.89677 7.02692 8.15944C6.92247 8.42211 6.89514 8.71114 6.94839 8.98999C7.00164 9.26884 7.13307 9.52497 7.32607 9.72601C7.51907 9.92705 7.76496 10.064 8.03265 10.1194C8.30035 10.1749 8.57782 10.1464 8.82998 10.0376C9.08214 9.92882 9.29767 9.74457 9.4493 9.50818C9.60094 9.27178 9.68188 8.99386 9.68188 8.70955C9.68372 8.52024 9.64929 8.33245 9.58059 8.15717C9.51189 7.9819 9.41031 7.82267 9.2818 7.6888C9.15328 7.55493 9.00042 7.44911 8.83215 7.37755C8.66389 7.30599 8.48361 7.27012 8.30188 7.27205Z" fill="#A3AED0" stroke="#A3AED0" stroke-width="0.5"/>
<path d="M12.2597 23.0845L11.0619 22.3657L13.8219 17.3345H17.9619C18.1432 17.3348 18.3227 17.2978 18.4903 17.2256C18.6578 17.1535 18.8101 17.0476 18.9383 16.9141C19.0665 16.7805 19.1681 16.622 19.2374 16.4474C19.3066 16.2729 19.3421 16.0858 19.3419 15.897V5.83447C19.3421 5.64562 19.3066 5.45856 19.2374 5.28403C19.1681 5.1095 19.0665 4.95091 18.9383 4.81737C18.8101 4.68383 18.6578 4.57796 18.4903 4.50582C18.3227 4.43368 18.1432 4.39669 17.9619 4.39697H4.16186C3.98056 4.39669 3.80098 4.43368 3.63343 4.50582C3.46588 4.57796 3.31364 4.68383 3.18544 4.81737C3.05724 4.95091 2.9556 5.1095 2.88635 5.28403C2.81709 5.45856 2.78158 5.64562 2.78186 5.83447V15.897C2.78158 16.0858 2.81709 16.2729 2.88635 16.4474C2.9556 16.622 3.05724 16.7805 3.18544 16.9141C3.31364 17.0476 3.46588 17.1535 3.63343 17.2256C3.80098 17.2978 3.98056 17.3348 4.16186 17.3345H10.3719V18.772H4.16186C3.42986 18.772 2.72784 18.4691 2.21024 17.9299C1.69264 17.3907 1.40186 16.6595 1.40186 15.897V5.83447C1.40176 5.4569 1.47309 5.083 1.61176 4.73415C1.75043 4.38529 1.95373 4.06832 2.21004 3.80133C2.46635 3.53434 2.77064 3.32258 3.10554 3.17813C3.44044 3.03368 3.79938 2.95938 4.16186 2.95947H17.9619C18.3243 2.95938 18.6833 3.03368 19.0182 3.17813C19.3531 3.32258 19.6574 3.53434 19.9137 3.80133C20.17 4.06832 20.3733 4.38529 20.512 4.73415C20.6506 5.083 20.7219 5.4569 20.7219 5.83447V15.897C20.7219 16.6595 20.4311 17.3907 19.9135 17.9299C19.3959 18.4691 18.6939 18.772 17.9619 18.772H14.6257L12.2597 23.0845Z" fill="#A3AED0" stroke="#A3AED0" stroke-width="0.5"/>
</g>
<defs>
<clipPath id="clip0_408_685">
<rect width="22.08" height="23" fill="white" transform="translate(0.0219727 0.499756)"/>
</clipPath>
</defs>
</svg>
