<svg width="14" height="18" viewBox="0 0 14 18" fill="none" xmlns="http://www.w3.org/2000/svg">
<path d="M9.89999 3H11.4C12.2 3 12.9 3.7 12.9 4.5V15C12.9 15.8 12.2 16.5 11.4 16.5H2.39999C1.59999 16.5 0.899994 15.8 0.899994 15V4.5C0.899994 3.7 1.59999 3 2.39999 3H3.89999" stroke="black" stroke-width="1.5" stroke-miterlimit="3.3333" stroke-linecap="round" stroke-linejoin="round"/>
<path d="M4.69999 1.5H9.19999C9.59999 1.5 9.99999 1.8 9.99999 2.3V3.8C9.99999 4.2 9.69999 4.6 9.19999 4.6H4.69999C4.19999 4.5 3.89999 4.2 3.89999 3.8V2.3C3.89999 1.8 4.19999 1.5 4.69999 1.5Z" stroke="black" stroke-width="1.5" stroke-miterlimit="3.3333" stroke-linecap="round" stroke-linejoin="round"/>
</svg>
