<svg width="14" height="18" viewBox="0 0 14 18" fill="none" xmlns="http://www.w3.org/2000/svg">
<path d="M10.2 3H11.7C12.5 3 13.2 3.7 13.2 4.5V15C13.2 15.8 12.5 16.5 11.7 16.5H2.69998C1.89998 16.5 1.19998 15.8 1.19998 15V4.5C1.19998 3.7 1.89998 3 2.69998 3H4.19998" stroke="black" stroke-width="1.5" stroke-miterlimit="3.3333" stroke-linecap="round" stroke-linejoin="round"/>
<path d="M4.99998 1.5H9.49998C9.89998 1.5 10.3 1.8 10.3 2.3V3.8C10.3 4.2 9.99998 4.6 9.49998 4.6H4.99998C4.49998 4.5 4.19998 4.2 4.19998 3.8V2.3C4.19998 1.8 4.49998 1.5 4.99998 1.5Z" stroke="black" stroke-width="1.5" stroke-miterlimit="3.3333" stroke-linecap="round" stroke-linejoin="round"/>
</svg>
