<svg width="58" height="58" viewBox="0 0 58 58" fill="none" xmlns="http://www.w3.org/2000/svg">
<rect width="58" height="58" rx="16" fill="#54B848" fill-opacity="0.2"/>
<path d="M40.9907 29.2113C39.9315 27.9744 39.4502 26.9025 39.4502 25.0815V24.4623C39.4502 22.0892 38.904 20.5602 37.7165 19.0312C35.8863 16.6567 32.8053 15.2256 29.789 15.2256H29.6608C26.708 15.2256 23.7234 16.591 21.8615 18.8692C20.6092 20.4288 19.9996 22.0235 19.9996 24.4623V25.0815C19.9996 26.9025 19.55 27.9744 18.4591 29.2113C17.6564 30.1226 17.3999 31.2938 17.3999 32.5614C17.3999 33.8304 17.8164 35.0323 18.6522 36.0092C19.7431 37.1804 21.2837 37.9281 22.8573 38.0581C25.1357 38.3181 27.4141 38.4159 29.7256 38.4159C32.0357 38.4159 34.3141 38.2523 36.5939 38.0581C38.1662 37.9281 39.7067 37.1804 40.7976 36.0092C41.632 35.0323 42.0499 33.8304 42.0499 32.5614C42.0499 31.2938 41.7934 30.1226 40.9907 29.2113Z" fill="#54B848"/>
<path opacity="0.4" d="M32.6375 40.2069C31.9126 40.0521 27.4956 40.0521 26.7707 40.2069C26.1511 40.35 25.481 40.683 25.481 41.4132C25.517 42.1097 25.9248 42.7246 26.4897 43.1145L26.4883 43.1159C27.2189 43.6855 28.0764 44.0476 28.9742 44.1776C29.4526 44.2433 29.9397 44.2404 30.4355 44.1776C31.3318 44.0476 32.1893 43.6855 32.9199 43.1159L32.9185 43.1145C33.4834 42.7246 33.8912 42.1097 33.9272 41.4132C33.9272 40.683 33.2571 40.35 32.6375 40.2069Z" fill="#54B848"/>
</svg>
