<svg width="24" height="24" viewBox="0 0 24 24" fill="none" xmlns="http://www.w3.org/2000/svg">
<path d="M7.64909 10.4791C7.64909 10.2404 7.74391 10.0114 7.9127 9.84265C8.08149 9.67386 8.31041 9.57904 8.54911 9.57904H11.5492V6.87897C11.5492 6.64026 11.644 6.41134 11.8128 6.24255C11.9816 6.07376 12.2105 5.97894 12.4492 5.97894C12.6879 5.97894 12.9168 6.07376 13.0856 6.24255C13.2544 6.41134 13.3492 6.64026 13.3492 6.87897V9.57904H16.3493C16.588 9.57904 16.817 9.67386 16.9857 9.84265C17.1545 10.0114 17.2494 10.2404 17.2494 10.4791C17.2494 10.7178 17.1545 10.9467 16.9857 11.1155C16.817 11.2843 16.588 11.3791 16.3493 11.3791H13.3492V14.0792C13.3492 14.3179 13.2544 14.5468 13.0856 14.7156C12.9168 14.8844 12.6879 14.9792 12.4492 14.9792C12.2105 14.9792 11.9816 14.8844 11.8128 14.7156C11.644 14.5468 11.5492 14.3179 11.5492 14.0792V11.3791H8.54911C8.31041 11.3791 8.08149 11.2843 7.9127 11.1155C7.74391 10.9467 7.64909 10.7178 7.64909 10.4791ZM5.06062 3.06046C7.02019 1.10088 9.67795 0 12.4492 0C15.2205 0 17.8782 1.10088 19.8378 3.06046C21.7974 5.02004 22.8983 7.6778 22.8983 10.4491C22.8983 13.2203 21.7974 15.8781 19.8378 17.8377L18.4134 19.2465C17.3638 20.2761 16.0013 21.601 14.3261 23.221C13.8226 23.7079 13.1496 23.98 12.4492 23.98C11.7488 23.98 11.0759 23.7079 10.5724 23.221L6.38425 19.1457C5.85624 18.6289 5.41503 18.1929 5.06062 17.8377C4.09029 16.8674 3.32057 15.7155 2.79543 14.4478C2.27029 13.18 2 11.8213 2 10.4491C2 9.07686 2.27029 7.71809 2.79543 6.45035C3.32057 5.18261 4.09029 4.03072 5.06062 3.06046ZM18.5658 4.33249C17.7625 3.52933 16.809 2.89225 15.7595 2.45761C14.7101 2.02297 13.5853 1.7993 12.4494 1.79935C11.3135 1.79941 10.1887 2.0232 9.13933 2.45794C8.08992 2.89268 7.13641 3.52986 6.33325 4.33309C5.53009 5.13633 4.893 6.0899 4.45837 7.13935C4.02373 8.18881 3.80005 9.31359 3.80011 10.4495C3.80016 11.5854 4.02395 12.7101 4.45869 13.7596C4.89343 14.809 5.53061 15.7625 6.33385 16.5656L8.1171 18.3273C9.09953 19.2881 10.3348 20.4881 11.8228 21.9274C11.9907 22.0898 12.2151 22.1806 12.4486 22.1806C12.6822 22.1806 12.9066 22.0898 13.0744 21.9274L17.1485 17.9673C17.711 17.4145 18.183 16.9472 18.5646 16.5656C20.1864 14.9437 21.0976 12.744 21.0976 10.4503C21.0976 8.15657 20.1864 5.95682 18.5646 4.3349" fill="#54B848"/>
</svg>
