<svg width="36" height="32" viewBox="0 0 36 32" fill="none" xmlns="http://www.w3.org/2000/svg">
<path d="M1 30.8508V22.1492H6.28512V23.4296H2.4803V25.8163H5.93817V27.0594H2.4803V29.5704H6.28512V30.8508H1Z" fill="#54B848"/>
<path d="M7.2927 30.8508L9.8254 26.4503L7.25801 22.1492H8.95803L10.7737 25.1823L12.439 22.1492H14.1044L11.5717 26.5249L14.1622 30.8508H12.4622L10.6234 27.7804L8.95803 30.8508H7.2927Z" fill="#54B848"/>
<path d="M18.388 31C17.5707 31 16.8691 30.8135 16.2832 30.4406C15.6972 30.0594 15.2462 29.5331 14.9301 28.8619C14.614 28.1823 14.4559 27.3992 14.4559 26.5124C14.4559 25.6257 14.614 24.8425 14.9301 24.163C15.2462 23.4834 15.6972 22.953 16.2832 22.5718C16.8691 22.1906 17.5707 22 18.388 22C19.3594 22 20.1535 22.261 20.7703 22.7831C21.3948 23.297 21.7842 24.0221 21.9384 24.9586H20.3077C20.2075 24.4862 19.9916 24.1174 19.6601 23.8522C19.3363 23.5787 18.9045 23.442 18.3648 23.442C17.617 23.442 17.031 23.7155 16.607 24.2624C16.1829 24.8094 15.9709 25.5594 15.9709 26.5124C15.9709 27.4655 16.1829 28.2155 16.607 28.7624C17.031 29.3011 17.617 29.5704 18.3648 29.5704C18.9045 29.5704 19.3363 29.4461 19.6601 29.1975C19.9916 28.9406 20.2075 28.5884 20.3077 28.1409H21.9384C21.7842 29.0359 21.3948 29.7362 20.7703 30.2417C20.1535 30.7472 19.3594 31 18.388 31Z" fill="#54B848"/>
<path d="M23.2487 30.8508V22.1492H28.5338V23.4296H24.729V25.8163H28.1869V27.0594H24.729V29.5704H28.5338V30.8508H23.2487Z" fill="#54B848"/>
<path d="M29.9346 30.8508V22.1492H31.4149V29.6077H35V30.8508H29.9346Z" fill="#54B848"/>
<path d="M1 30.8508V22.1492H6.28512V23.4296H2.4803V25.8163H5.93817V27.0594H2.4803V29.5704H6.28512V30.8508H1Z" stroke="#54B848" stroke-width="0.6"/>
<path d="M7.2927 30.8508L9.8254 26.4503L7.25801 22.1492H8.95803L10.7737 25.1823L12.439 22.1492H14.1044L11.5717 26.5249L14.1622 30.8508H12.4622L10.6234 27.7804L8.95803 30.8508H7.2927Z" stroke="#54B848" stroke-width="0.6"/>
<path d="M18.388 31C17.5707 31 16.8691 30.8135 16.2832 30.4406C15.6972 30.0594 15.2462 29.5331 14.9301 28.8619C14.614 28.1823 14.4559 27.3992 14.4559 26.5124C14.4559 25.6257 14.614 24.8425 14.9301 24.163C15.2462 23.4834 15.6972 22.953 16.2832 22.5718C16.8691 22.1906 17.5707 22 18.388 22C19.3594 22 20.1535 22.261 20.7703 22.7831C21.3948 23.297 21.7842 24.0221 21.9384 24.9586H20.3077C20.2075 24.4862 19.9916 24.1174 19.6601 23.8522C19.3363 23.5787 18.9045 23.442 18.3648 23.442C17.617 23.442 17.031 23.7155 16.607 24.2624C16.1829 24.8094 15.9709 25.5594 15.9709 26.5124C15.9709 27.4655 16.1829 28.2155 16.607 28.7624C17.031 29.3011 17.617 29.5704 18.3648 29.5704C18.9045 29.5704 19.3363 29.4461 19.6601 29.1975C19.9916 28.9406 20.2075 28.5884 20.3077 28.1409H21.9384C21.7842 29.0359 21.3948 29.7362 20.7703 30.2417C20.1535 30.7472 19.3594 31 18.388 31Z" stroke="#54B848" stroke-width="0.6"/>
<path d="M23.2487 30.8508V22.1492H28.5338V23.4296H24.729V25.8163H28.1869V27.0594H24.729V29.5704H28.5338V30.8508H23.2487Z" stroke="#54B848" stroke-width="0.6"/>
<path d="M29.9346 30.8508V22.1492H31.4149V29.6077H35V30.8508H29.9346Z" stroke="#54B848" stroke-width="0.6"/>
<path d="M16.5751 1.17627C16.6308 1.1204 16.697 1.07607 16.7699 1.04582C16.8428 1.01557 16.921 1 16.9999 1C17.0788 1 17.1569 1.01557 17.2298 1.04582C17.3027 1.07607 17.3689 1.1204 17.4247 1.17627L22.2247 5.97627C22.3373 6.08894 22.4006 6.24174 22.4006 6.40107C22.4006 6.5604 22.3373 6.71321 22.2247 6.82587C22.112 6.93854 21.9592 7.00183 21.7999 7.00183C21.6405 7.00183 21.4877 6.93854 21.3751 6.82587L17.5999 3.04947V16.0011C17.5999 16.1602 17.5367 16.3128 17.4241 16.4253C17.3116 16.5379 17.159 16.6011 16.9999 16.6011C16.8407 16.6011 16.6881 16.5379 16.5756 16.4253C16.4631 16.3128 16.3999 16.1602 16.3999 16.0011V3.04947L12.6247 6.82587C12.5689 6.88166 12.5027 6.92591 12.4298 6.9561C12.3569 6.98629 12.2788 7.00183 12.1999 7.00183C12.121 7.00183 12.0429 6.98629 11.97 6.9561C11.8971 6.92591 11.8309 6.88166 11.7751 6.82587C11.7193 6.77009 11.675 6.70386 11.6449 6.63097C11.6147 6.55809 11.5991 6.47997 11.5991 6.40107C11.5991 6.32218 11.6147 6.24406 11.6449 6.17117C11.675 6.09828 11.7193 6.03206 11.7751 5.97627L16.5751 1.17627Z" fill="#54B848" stroke="#54B848"/>
</svg>
