<svg width="35" height="36" viewBox="0 0 35 36" fill="none" xmlns="http://www.w3.org/2000/svg">
<path d="M17.5 3.28613C20.7323 3.28613 23.8323 4.57017 26.1179 6.85577C28.4035 9.14137 29.6875 12.2413 29.6875 15.4736C29.6875 20.6236 26.0687 26.2361 18.925 32.3711C18.5278 32.7124 18.0213 32.8998 17.4977 32.8993C16.974 32.8989 16.4679 32.7106 16.0712 32.3686L15.5987 31.9586C8.77125 25.9836 5.3125 20.5086 5.3125 15.4736C5.3125 12.2413 6.59654 9.14137 8.88214 6.85577C11.1677 4.57017 14.2677 3.28613 17.5 3.28613ZM17.5 10.7861C16.2568 10.7861 15.0645 11.28 14.1854 12.1591C13.3064 13.0381 12.8125 14.2304 12.8125 15.4736C12.8125 16.7168 13.3064 17.9091 14.1854 18.7882C15.0645 19.6673 16.2568 20.1611 17.5 20.1611C18.7432 20.1611 19.9355 19.6673 20.8146 18.7882C21.6936 17.9091 22.1875 16.7168 22.1875 15.4736C22.1875 14.2304 21.6936 13.0381 20.8146 12.1591C19.9355 11.28 18.7432 10.7861 17.5 10.7861Z" fill="#54B848"/>
</svg>
