<svg width="31" height="32" viewBox="0 0 31 32" fill="none" xmlns="http://www.w3.org/2000/svg">
<path d="M5.31672 24.1809C6.18679 24.1809 6.93959 24.8332 7.18668 25.586L9.70788 24.4123C9.12889 23.0795 7.85363 21.6011 5.31777 21.6011C2.28877 21.6011 0 23.6155 0 26.6006C0 29.5709 2.28981 31.599 5.31777 31.599C7.85363 31.599 9.14354 30.063 9.70788 28.7731L7.18668 27.6141C6.94063 28.3669 6.18679 29.0191 5.31672 29.0191C3.91163 29.0191 2.96932 27.947 2.96932 26.5995C2.96932 25.252 3.91059 24.1809 5.31672 24.1809ZM15.2382 29.1375C14.0779 29.1388 12.9618 28.6925 12.1223 27.8915L10.601 30.0651C11.6291 30.9928 13.0353 31.6011 15.0937 31.6011C17.6872 31.6011 19.2671 30.3698 19.2671 28.2391C19.2671 24.6458 13.8907 25.4279 13.8907 24.5149C13.8907 24.2689 14.0498 24.0804 14.6299 24.0804C15.5429 24.0804 16.6297 24.3987 17.4694 25.0363L19.0347 22.9643C17.9332 22.0659 16.5135 21.6168 14.9335 21.6168C12.2814 21.6168 10.9203 23.1821 10.9203 24.8196C10.9203 28.6307 16.3103 27.6884 16.3103 28.616C16.3103 28.9919 15.7889 29.1375 15.2382 29.1375ZM23.2112 21.7613H19.8932L23.4572 31.4262H27.1385L30.7025 21.7613H27.3846L25.2979 28.2674L23.2112 21.7613Z" fill="#54B848"/>
<path d="M14.5751 1.17627C14.6308 1.1204 14.697 1.07607 14.7699 1.04582C14.8428 1.01557 14.921 1 14.9999 1C15.0788 1 15.1569 1.01557 15.2298 1.04582C15.3027 1.07607 15.3689 1.1204 15.4247 1.17627L20.2247 5.97627C20.3373 6.08894 20.4006 6.24174 20.4006 6.40107C20.4006 6.5604 20.3373 6.71321 20.2247 6.82587C20.112 6.93854 19.9592 7.00183 19.7999 7.00183C19.6405 7.00183 19.4877 6.93854 19.3751 6.82587L15.5999 3.04947V16.0011C15.5999 16.1602 15.5367 16.3128 15.4241 16.4253C15.3116 16.5379 15.159 16.6011 14.9999 16.6011C14.8407 16.6011 14.6881 16.5379 14.5756 16.4253C14.4631 16.3128 14.3999 16.1602 14.3999 16.0011V3.04947L10.6247 6.82587C10.5689 6.88166 10.5027 6.92591 10.4298 6.9561C10.3569 6.98629 10.2788 7.00183 10.1999 7.00183C10.121 7.00183 10.0429 6.98629 9.96998 6.9561C9.89709 6.92591 9.83086 6.88166 9.77508 6.82587C9.71929 6.77009 9.67504 6.70386 9.64485 6.63097C9.61466 6.55809 9.59912 6.47997 9.59912 6.40107C9.59912 6.32218 9.61466 6.24406 9.64485 6.17117C9.67504 6.09828 9.71929 6.03206 9.77508 5.97627L14.5751 1.17627Z" fill="#54B848" stroke="#54B848"/>
</svg>
