<svg width="1254" height="158" viewBox="0 0 1254 158" fill="none" xmlns="http://www.w3.org/2000/svg">
<circle cx="225.5" cy="95.5701" r="6" fill="white"/>
<circle cx="354.5" cy="64" r="6" fill="white"/>
<circle cx="6.5" cy="65" r="6" fill="white"/>
<circle cx="1134.5" cy="132" r="6" fill="white"/>
<circle cx="1247.5" cy="152" r="6" fill="white"/>
<circle cx="116.5" cy="87" r="6" fill="white"/>
<circle cx="1018.5" cy="151" r="6" fill="white"/>
<circle cx="909.5" cy="109" r="6" fill="white"/>
<circle cx="792.5" cy="86" r="6" fill="white"/>
<circle cx="682.5" cy="145" r="6" fill="white"/>
<circle cx="572.5" cy="6" r="6" fill="white"/>
<circle cx="464.5" cy="85" r="6" fill="white"/>
<path d="M3.5 64.936L112.011 86.0014L226.933 97.0356L352.866 64.936L463.893 86.0014L573.231 5L682.257 144.495L790.706 86.0014L909.607 109.872L1019.34 151L1134.02 132.302L1247.5 151" stroke="white" stroke-width="3"/>
</svg>
