<svg width="35" height="36" viewBox="0 0 35 36" fill="none" xmlns="http://www.w3.org/2000/svg">
<path d="M7.416 13.248H7.76114C9.08994 13.248 10.1771 14.3352 10.1771 15.664V27.744C10.1771 29.0728 9.08994 30.16 7.76114 30.16H7.416C6.0872 30.16 5 29.0728 5 27.744V15.664C5 14.3352 6.0872 13.248 7.416 13.248ZM17.08 6C18.4088 6 19.496 7.0872 19.496 8.416V27.744C19.496 29.0728 18.4088 30.16 17.08 30.16C15.7512 30.16 14.664 29.0728 14.664 27.744V8.416C14.664 7.0872 15.7512 6 17.08 6ZM26.744 19.8057C28.0728 19.8057 29.16 20.8929 29.16 22.2217V27.744C29.16 29.0728 28.0728 30.16 26.744 30.16C25.4152 30.16 24.328 29.0728 24.328 27.744V22.2217C24.328 20.8929 25.4152 19.8057 26.744 19.8057Z" fill="#54B848"/>
</svg>
