<svg width="35" height="36" viewBox="0 0 35 36" fill="none" xmlns="http://www.w3.org/2000/svg">
<path d="M26.136 7.517H24.8775V6.2585C24.8775 5.56632 24.3112 5 23.619 5C22.9268 5 22.3605 5.56632 22.3605 6.2585V7.517H12.2925V6.2585C12.2925 5.56632 11.7262 5 11.034 5C10.3418 5 9.7755 5.56632 9.7755 6.2585V7.517H8.517C7.84945 7.517 7.20924 7.78218 6.73721 8.25421C6.26518 8.72624 6 9.36645 6 10.034V27.653C6 29.0373 7.13265 30.17 8.517 30.17H26.136C27.5203 30.17 28.653 29.0373 28.653 27.653V10.034C28.653 8.64965 27.5203 7.517 26.136 7.517ZM17.3265 11.2925C19.4156 11.2925 21.102 12.9789 21.102 15.068C21.102 17.1571 19.4156 18.8435 17.3265 18.8435C15.2374 18.8435 13.551 17.1571 13.551 15.068C13.551 12.9789 15.2374 11.2925 17.3265 11.2925ZM24.8775 26.3945H9.7755V25.136C9.7755 22.619 14.8095 21.2346 17.3265 21.2346C19.8435 21.2346 24.8775 22.619 24.8775 25.136V26.3945Z" fill="#B8B8B8"/>
</svg>
