<svg width="25" height="24" viewBox="0 0 25 24" fill="none" xmlns="http://www.w3.org/2000/svg">
<g clip-path="url(#clip0_414_7283)">
<path d="M11.062 7H13.062V9H11.062V7ZM12.062 17C12.612 17 13.062 16.55 13.062 16V12C13.062 11.45 12.612 11 12.062 11C11.512 11 11.062 11.45 11.062 12V16C11.062 16.55 11.512 17 12.062 17ZM12.062 2C6.54201 2 2.06201 6.48 2.06201 12C2.06201 17.52 6.54201 22 12.062 22C17.582 22 22.062 17.52 22.062 12C22.062 6.48 17.582 2 12.062 2ZM12.062 20C7.65201 20 4.06201 16.41 4.06201 12C4.06201 7.59 7.65201 4 12.062 4C16.472 4 20.062 7.59 20.062 12C20.062 16.41 16.472 20 12.062 20Z" fill="#A3AED0"/>
</g>
<defs>
<clipPath id="clip0_414_7283">
<rect width="24" height="24" fill="white" transform="translate(0.0620117)"/>
</clipPath>
</defs>
</svg>
