<svg width="25" height="24" viewBox="0 0 25 24" fill="none" xmlns="http://www.w3.org/2000/svg">
<g clip-path="url(#clip0_408_664)">
<path d="M11.1021 6.99976H13.1021V8.99976H11.1021V6.99976ZM12.1021 16.9998C12.6521 16.9998 13.1021 16.5498 13.1021 15.9998V11.9998C13.1021 11.4498 12.6521 10.9998 12.1021 10.9998C11.5521 10.9998 11.1021 11.4498 11.1021 11.9998V15.9998C11.1021 16.5498 11.5521 16.9998 12.1021 16.9998ZM12.1021 1.99976C6.58205 1.99976 2.10205 6.47976 2.10205 11.9998C2.10205 17.5198 6.58205 21.9998 12.1021 21.9998C17.6221 21.9998 22.1021 17.5198 22.1021 11.9998C22.1021 6.47976 17.6221 1.99976 12.1021 1.99976ZM12.1021 19.9998C7.69205 19.9998 4.10205 16.4098 4.10205 11.9998C4.10205 7.58976 7.69205 3.99976 12.1021 3.99976C16.5121 3.99976 20.1021 7.58976 20.1021 11.9998C20.1021 16.4098 16.5121 19.9998 12.1021 19.9998Z" fill="#A3AED0"/>
</g>
<defs>
<clipPath id="clip0_408_664">
<rect width="24" height="24" fill="white" transform="translate(0.102051 -0.000244141)"/>
</clipPath>
</defs>
</svg>
