<svg width="35" height="36" viewBox="0 0 35 36" fill="none" xmlns="http://www.w3.org/2000/svg">
<path d="M6.22255 29.25C5.99593 29.25 5.78991 29.1931 5.6045 29.0794C5.41908 28.9657 5.27487 28.8165 5.17186 28.6319C5.06885 28.4465 5.01199 28.2454 5.00127 28.0287C4.99056 27.812 5.04742 27.601 5.17186 27.3958L16.6059 7.61806C16.7295 7.41204 16.8894 7.25752 17.0855 7.15451C17.2816 7.0515 17.4823 7 17.6875 7C17.8935 7 18.0946 7.0515 18.2907 7.15451C18.4868 7.25752 18.6463 7.41204 18.7691 7.61806L30.2031 27.3958C30.3267 27.6018 30.3836 27.8132 30.3737 28.0299C30.3638 28.2467 30.3069 28.4473 30.2031 28.6319C30.1001 28.8174 29.9559 28.9669 29.7705 29.0806C29.585 29.1944 29.379 29.2508 29.1524 29.25H6.22255ZM17.6875 25.5417C18.0377 25.5417 18.3315 25.423 18.5688 25.1857C18.8062 24.9483 18.9244 24.655 18.9236 24.3055C18.9236 23.9553 18.8049 23.6615 18.5676 23.4242C18.3303 23.1869 18.0369 23.0686 17.6875 23.0694C17.3372 23.0694 17.0435 23.1881 16.8061 23.4254C16.5688 23.6628 16.4505 23.9561 16.4514 24.3055C16.4514 24.6558 16.57 24.9496 16.8074 25.1869C17.0447 25.4242 17.3381 25.5425 17.6875 25.5417ZM17.6875 21.8333C18.0377 21.8333 18.3315 21.7147 18.5688 21.4773C18.8062 21.24 18.9244 20.9466 18.9236 20.5972V16.8889C18.9236 16.5387 18.8049 16.2449 18.5676 16.0075C18.3303 15.7702 18.0369 15.6519 17.6875 15.6528C17.3372 15.6528 17.0435 15.7714 16.8061 16.0088C16.5688 16.2461 16.4505 16.5395 16.4514 16.8889V20.5972C16.4514 20.9474 16.57 21.2412 16.8074 21.4786C17.0447 21.7159 17.3381 21.8342 17.6875 21.8333Z" fill="#B8B8B8"/>
</svg>
