<svg width="15" height="4" viewBox="0 0 15 4" fill="none" xmlns="http://www.w3.org/2000/svg">
<path d="M7.8 2.79995C8.24183 2.79995 8.6 2.44178 8.6 1.99995C8.6 1.55812 8.24183 1.19995 7.8 1.19995C7.35817 1.19995 7 1.55812 7 1.99995C7 2.44178 7.35817 2.79995 7.8 2.79995Z" stroke="white" stroke-miterlimit="3.3333" stroke-linecap="round" stroke-linejoin="round"/>
<path d="M13.6 2.79995C14.0418 2.79995 14.4 2.44178 14.4 1.99995C14.4 1.55812 14.0418 1.19995 13.6 1.19995C13.1582 1.19995 12.8 1.55812 12.8 1.99995C12.8 2.44178 13.1582 2.79995 13.6 2.79995Z" stroke="white" stroke-miterlimit="3.3333" stroke-linecap="round" stroke-linejoin="round"/>
<path d="M2.00001 2.79995C2.44184 2.79995 2.80001 2.44178 2.80001 1.99995C2.80001 1.55812 2.44184 1.19995 2.00001 1.19995C1.55818 1.19995 1.20001 1.55812 1.20001 1.99995C1.20001 2.44178 1.55818 2.79995 2.00001 2.79995Z" stroke="white" stroke-miterlimit="3.3333" stroke-linecap="round" stroke-linejoin="round"/>
</svg>
