<svg width="15" height="4" viewBox="0 0 15 4" fill="none" xmlns="http://www.w3.org/2000/svg">
<path d="M7.89998 2.79995C8.3418 2.79995 8.69998 2.44178 8.69998 1.99995C8.69998 1.55812 8.3418 1.19995 7.89998 1.19995C7.45815 1.19995 7.09998 1.55812 7.09998 1.99995C7.09998 2.44178 7.45815 2.79995 7.89998 2.79995Z" stroke="white" stroke-miterlimit="3.3333" stroke-linecap="round" stroke-linejoin="round"/>
<path d="M13.7 2.79995C14.1418 2.79995 14.5 2.44178 14.5 1.99995C14.5 1.55812 14.1418 1.19995 13.7 1.19995C13.2582 1.19995 12.9 1.55812 12.9 1.99995C12.9 2.44178 13.2582 2.79995 13.7 2.79995Z" stroke="white" stroke-miterlimit="3.3333" stroke-linecap="round" stroke-linejoin="round"/>
<path d="M2.09999 2.79995C2.54182 2.79995 2.89999 2.44178 2.89999 1.99995C2.89999 1.55812 2.54182 1.19995 2.09999 1.19995C1.65816 1.19995 1.29999 1.55812 1.29999 1.99995C1.29999 2.44178 1.65816 2.79995 2.09999 2.79995Z" stroke="white" stroke-miterlimit="3.3333" stroke-linecap="round" stroke-linejoin="round"/>
</svg>
