<svg width="25" height="24" viewBox="0 0 25 24" fill="none" xmlns="http://www.w3.org/2000/svg">
<g clip-path="url(#clip0_414_7784)">
<path d="M19.312 17.2898L18.022 15.9998V10.9998C18.022 7.92976 16.382 5.35976 13.522 4.67976V3.99976C13.522 3.16976 12.852 2.49976 12.022 2.49976C11.192 2.49976 10.522 3.16976 10.522 3.99976V4.67976C7.65202 5.35976 6.02202 7.91976 6.02202 10.9998V15.9998L4.73202 17.2898C4.10202 17.9198 4.54202 18.9998 5.43202 18.9998H18.602C19.502 18.9998 19.942 17.9198 19.312 17.2898ZM16.022 16.9998H8.02202V10.9998C8.02202 8.51976 9.53202 6.49976 12.022 6.49976C14.512 6.49976 16.022 8.51976 16.022 10.9998V16.9998ZM12.022 21.9998C13.122 21.9998 14.022 21.0998 14.022 19.9998H10.022C10.022 21.0998 10.912 21.9998 12.022 21.9998Z" fill="#A3AED0"/>
</g>
<defs>
<clipPath id="clip0_414_7784">
<rect width="24" height="24" fill="white" transform="translate(0.0219727 -0.000244141)"/>
</clipPath>
</defs>
</svg>
