<svg width="40" height="40" viewBox="0 0 40 40" fill="none" xmlns="http://www.w3.org/2000/svg">
<path d="M0 20C0 8.9543 8.9543 0 20 0C31.0457 0 40 8.9543 40 20C40 31.0457 31.0457 40 20 40C8.9543 40 0 31.0457 0 20Z" fill="#54B848"/>
<path d="M27.312 25.29L26.022 24V19C26.022 15.93 24.382 13.36 21.522 12.68V12C21.522 11.17 20.852 10.5 20.022 10.5C19.192 10.5 18.522 11.17 18.522 12V12.68C15.652 13.36 14.022 15.92 14.022 19V24L12.732 25.29C12.102 25.92 12.542 27 13.432 27H26.602C27.502 27 27.942 25.92 27.312 25.29ZM24.022 25H16.022V19C16.022 16.52 17.532 14.5 20.022 14.5C22.512 14.5 24.022 16.52 24.022 19V25ZM20.022 30C21.122 30 22.022 29.1 22.022 28H18.022C18.022 29.1 18.912 30 20.022 30Z" fill="white"/>
</svg>
