<svg width="41" height="40" viewBox="0 0 41 40" fill="none" xmlns="http://www.w3.org/2000/svg">
<path d="M0.0400391 20C0.0400391 8.9543 8.99434 0 20.04 0C31.0857 0 40.04 8.9543 40.04 20C40.04 31.0457 31.0857 40 20.04 40C8.99434 40 0.0400391 31.0457 0.0400391 20Z" fill="#54B848"/>
<g clip-path="url(#clip0_414_7277)">
<path d="M20.1019 24.1788C19.3049 24.1795 18.5201 23.9745 17.8178 23.582C17.1154 23.1896 16.5174 22.6219 16.0771 21.9298L17.2267 21.1342C17.5414 21.6285 17.9686 22.0339 18.4703 22.3144C18.972 22.595 19.5325 22.7417 20.1019 22.7417C20.6713 22.7417 21.2318 22.595 21.7335 22.3144C22.2352 22.0339 22.6625 21.6285 22.9771 21.1342L24.1267 21.9298C23.6864 22.6219 23.0884 23.1896 22.3861 23.582C21.6837 23.9745 20.8989 24.1795 20.1019 24.1788ZM22.8619 16.2725C22.589 16.2725 22.3222 16.3568 22.0952 16.5148C21.8683 16.6728 21.6914 16.8973 21.587 17.1599C21.4825 17.4226 21.4552 17.7116 21.5084 17.9905C21.5617 18.2693 21.6931 18.5255 21.8861 18.7265C22.0791 18.9275 22.325 19.0644 22.5927 19.1199C22.8604 19.1754 23.1379 19.1469 23.39 19.0381C23.6422 18.9293 23.8577 18.7451 24.0093 18.5087C24.161 18.2723 24.2419 17.9943 24.2419 17.71C24.2438 17.5207 24.2093 17.3329 24.1406 17.1577C24.0719 16.9824 23.9704 16.8232 23.8418 16.6893C23.7133 16.5554 23.5605 16.4496 23.3922 16.378C23.2239 16.3065 23.0437 16.2706 22.8619 16.2725ZM17.3419 16.2725C17.069 16.2725 16.8022 16.3568 16.5752 16.5148C16.3483 16.6728 16.1714 16.8973 16.067 17.1599C15.9625 17.4226 15.9352 17.7116 15.9884 17.9905C16.0417 18.2693 16.1731 18.5255 16.3661 18.7265C16.5591 18.9275 16.805 19.0644 17.0727 19.1199C17.3404 19.1754 17.6179 19.1469 17.87 19.0381C18.1222 18.9293 18.3377 18.7451 18.4893 18.5087C18.641 18.2723 18.7219 17.9943 18.7219 17.71C18.7238 17.5207 18.6893 17.3329 18.6206 17.1577C18.5519 16.9824 18.4503 16.8232 18.3218 16.6893C18.1933 16.5554 18.0405 16.4496 17.8722 16.378C17.7039 16.3065 17.5237 16.2706 17.3419 16.2725Z" fill="white" stroke="white" stroke-width="0.5"/>
<path d="M21.2997 32.085L20.1019 31.3662L22.8619 26.335H27.0019C27.1832 26.3352 27.3628 26.2983 27.5303 26.2261C27.6979 26.154 27.8501 26.0481 27.9783 25.9146C28.1065 25.781 28.2082 25.6224 28.2774 25.4479C28.3467 25.2734 28.3822 25.0863 28.3819 24.8975V14.835C28.3822 14.6461 28.3467 14.4591 28.2774 14.2845C28.2082 14.11 28.1065 13.9514 27.9783 13.8179C27.8501 13.6843 27.6979 13.5784 27.5303 13.5063C27.3628 13.4342 27.1832 13.3972 27.0019 13.3975H13.2019C13.0206 13.3972 12.841 13.4342 12.6735 13.5063C12.5059 13.5784 12.3537 13.6843 12.2255 13.8179C12.0973 13.9514 11.9956 14.11 11.9264 14.2845C11.8571 14.4591 11.8216 14.6461 11.8219 14.835V24.8975C11.8216 25.0863 11.8571 25.2734 11.9264 25.4479C11.9956 25.6224 12.0973 25.781 12.2255 25.9146C12.3537 26.0481 12.5059 26.154 12.6735 26.2261C12.841 26.2983 13.0206 26.3352 13.2019 26.335H19.4119V27.7725H13.2019C12.4699 27.7725 11.7679 27.4696 11.2503 26.9304C10.7327 26.3912 10.4419 25.66 10.4419 24.8975V14.835C10.4418 14.4574 10.5131 14.0835 10.6518 13.7346C10.7905 13.3858 10.9938 13.0688 11.2501 12.8018C11.5064 12.5348 11.8107 12.3231 12.1456 12.1786C12.4805 12.0342 12.8394 11.9599 13.2019 11.96H27.0019C27.3644 11.9599 27.7233 12.0342 28.0582 12.1786C28.3931 12.3231 28.6974 12.5348 28.9537 12.8018C29.21 13.0688 29.4133 13.3858 29.552 13.7346C29.6907 14.0835 29.762 14.4574 29.7619 14.835V24.8975C29.7619 25.66 29.4711 26.3912 28.9535 26.9304C28.4359 27.4696 27.7339 27.7725 27.0019 27.7725H23.6657L21.2997 32.085Z" fill="white" stroke="white" stroke-width="0.5"/>
</g>
<defs>
<clipPath id="clip0_414_7277">
<rect width="22.08" height="23" fill="white" transform="translate(9.06201 9.5)"/>
</clipPath>
</defs>
</svg>
