<svg width="25" height="24" viewBox="0 0 25 24" fill="none" xmlns="http://www.w3.org/2000/svg">
<g clip-path="url(#clip0_414_7406)">
<path d="M19.3521 17.29L18.0621 16V11C18.0621 7.93 16.4221 5.36 13.5621 4.68V4C13.5621 3.17 12.8921 2.5 12.0621 2.5C11.2321 2.5 10.5621 3.17 10.5621 4V4.68C7.69206 5.36 6.06206 7.92 6.06206 11V16L4.77206 17.29C4.14206 17.92 4.58206 19 5.47206 19H18.6421C19.5421 19 19.9821 17.92 19.3521 17.29ZM16.0621 17H8.06206V11C8.06206 8.52 9.57206 6.5 12.0621 6.5C14.5521 6.5 16.0621 8.52 16.0621 11V17ZM12.0621 22C13.1621 22 14.0621 21.1 14.0621 20H10.0621C10.0621 21.1 10.9521 22 12.0621 22Z" fill="#A3AED0"/>
</g>
<defs>
<clipPath id="clip0_414_7406">
<rect width="24" height="24" fill="white" transform="translate(0.0620117)"/>
</clipPath>
</defs>
</svg>
