<svg width="24" height="25" viewBox="0 0 24 25" fill="none" xmlns="http://www.w3.org/2000/svg">
<path d="M15.5 12.5C15.5 12.9596 15.4095 13.4148 15.2336 13.8394C15.0577 14.264 14.7999 14.6499 14.4749 14.9749C14.1499 15.2999 13.764 15.5577 13.3394 15.7336C12.9148 15.9095 12.4596 16 12 16C11.5404 16 11.0852 15.9095 10.6606 15.7336C10.236 15.5577 9.85013 15.2999 9.52513 14.9749C9.20012 14.6499 8.94231 14.264 8.76642 13.8394C8.59053 13.4148 8.5 12.9596 8.5 12.5C8.5 11.5717 8.86875 10.6815 9.52513 10.0251C10.1815 9.36875 11.0717 9 12 9C12.9283 9 13.8185 9.36875 14.4749 10.0251C15.1313 10.6815 15.5 11.5717 15.5 12.5Z" fill="#54B848"/>
<path d="M12 4C15.432 4 18.124 5.534 20.054 7.241C21.98 8.944 23.186 10.851 23.67 11.701C23.8101 11.944 23.8838 12.2195 23.8838 12.5C23.8838 12.7805 23.8101 13.056 23.67 13.299C23.186 14.149 21.98 16.056 20.054 17.76C18.125 19.466 15.432 21 12 21C8.56799 21 5.87599 19.466 3.94599 17.76C2.01999 16.058 0.813993 14.15 0.329993 13.3C0.189935 13.057 0.116211 12.7815 0.116211 12.501C0.116211 12.2205 0.189935 11.945 0.329993 11.702C0.813993 10.852 2.01999 8.945 3.94599 7.24C5.87499 5.534 8.56799 4 12 4ZM1.63299 12.445C1.62276 12.4616 1.61691 12.4805 1.61599 12.5C1.61699 12.52 1.62199 12.539 1.63299 12.556C2.07399 13.33 3.18399 15.083 4.93999 16.636C6.69099 18.185 9.04499 19.5 12 19.5C14.955 19.5 17.31 18.185 19.06 16.636C20.816 15.083 21.926 13.33 22.367 12.556C22.3776 12.5392 22.3834 12.5199 22.384 12.5C22.3834 12.4801 22.3776 12.4608 22.367 12.444C21.926 11.671 20.816 9.917 19.06 8.364C17.309 6.815 14.955 5.5 12 5.5C9.04499 5.5 6.68999 6.814 4.93999 8.365C3.18399 9.917 2.07399 11.671 1.63299 12.445Z" fill="#54B848"/>
</svg>
