<svg width="35" height="36" viewBox="0 0 35 36" fill="none" xmlns="http://www.w3.org/2000/svg">
<path d="M5.64061 8.89494L7.46341 10.7177C9.15858 8.49849 11.5744 6.93965 14.295 6.30957C17.0156 5.67949 19.8708 6.0176 22.3689 7.26568C24.8671 8.51377 26.852 10.5937 27.982 13.1475C29.1119 15.7013 29.3162 18.5692 28.5596 21.2574C27.8031 23.9455 26.133 26.2858 23.8369 27.8754C21.5409 29.465 18.7625 30.2044 15.98 29.9663C13.1976 29.7282 10.5852 28.5275 8.59261 26.5709C6.6 24.6143 5.35184 22.0243 5.06301 19.2466C5.03237 18.9496 5.12098 18.6526 5.30935 18.4209C5.49771 18.1892 5.7704 18.0418 6.06743 18.0112C6.36445 17.9806 6.66148 18.0692 6.89318 18.2575C7.12487 18.4459 7.27224 18.7186 7.30288 19.0156C7.53941 21.2846 8.56394 23.3988 10.1982 24.9905C11.8325 26.5821 13.9731 27.5504 16.2475 27.7269C18.5219 27.9034 20.7862 27.2769 22.6465 25.9564C24.5067 24.636 25.8452 22.7051 26.4289 20.4998C27.0126 18.2945 26.8047 15.9543 25.8413 13.8864C24.878 11.8185 23.2201 10.1539 21.1562 9.18205C19.0923 8.21022 16.753 7.99274 14.5453 8.56744C12.3376 9.14215 10.4012 10.4727 9.07317 12.3275L11.1105 14.3648C11.1631 14.4173 11.1989 14.4842 11.2135 14.557C11.228 14.6299 11.2206 14.7054 11.1921 14.774C11.1637 14.8426 11.1155 14.9012 11.0537 14.9425C10.9919 14.9837 10.9192 15.0056 10.845 15.0054H5.37506C5.27559 15.0054 5.18019 14.9659 5.10985 14.8956C5.03952 14.8253 5 14.7299 5 14.6304V9.16048C4.99987 9.0862 5.02179 9.01356 5.063 8.95176C5.1042 8.88996 5.16283 8.84178 5.23144 8.81334C5.30006 8.78489 5.37557 8.77747 5.44842 8.79199C5.52126 8.80652 5.58815 8.84235 5.64061 8.89494ZM16.6269 12.005C16.9253 12.005 17.2115 12.1235 17.4225 12.3345C17.6336 12.5455 17.7521 12.8317 17.7521 13.1301V17.6189L20.7946 18.8371C21.0627 18.954 21.2748 19.1706 21.3859 19.4412C21.4969 19.7118 21.4983 20.015 21.3896 20.2865C21.281 20.5581 21.0708 20.7767 20.8038 20.8959C20.5367 21.0152 20.2337 21.0258 19.959 20.9254L16.2084 19.4252C15.9999 19.3414 15.8212 19.1972 15.6953 19.0112C15.5694 18.8251 15.502 18.6057 15.5017 18.381V13.1301C15.5017 12.8317 15.6203 12.5455 15.8313 12.3345C16.0423 12.1235 16.3285 12.005 16.6269 12.005Z" fill="#54B848"/>
</svg>
