<svg width="35" height="36" viewBox="0 0 35 36" fill="none" xmlns="http://www.w3.org/2000/svg">
<path d="M5.64061 8.89518L7.46341 10.718C9.15858 8.49873 11.5744 6.93989 14.295 6.30981C17.0156 5.67973 19.8708 6.01784 22.3689 7.26593C24.8671 8.51402 26.852 10.594 27.982 13.1478C29.1119 15.7016 29.3162 18.5694 28.5596 21.2576C27.8031 23.9458 26.133 26.2861 23.8369 27.8757C21.5409 29.4652 18.7625 30.2046 15.98 29.9665C13.1976 29.7284 10.5852 28.5277 8.59261 26.5711C6.6 24.6146 5.35184 22.0245 5.06301 19.2469C5.03237 18.9499 5.12098 18.6528 5.30935 18.4211C5.49771 18.1895 5.7704 18.0421 6.06743 18.0114C6.36445 17.9808 6.66148 18.0694 6.89318 18.2578C7.12487 18.4461 7.27224 18.7188 7.30288 19.0159C7.53941 21.2848 8.56394 23.3991 10.1982 24.9907C11.8325 26.5824 13.9731 27.5507 16.2475 27.7272C18.5219 27.9037 20.7862 27.2772 22.6465 25.9567C24.5067 24.6362 25.8452 22.7053 26.4289 20.5C27.0126 18.2947 26.8047 15.9545 25.8413 13.8867C24.878 11.8188 23.2201 10.1541 21.1562 9.18229C19.0923 8.21046 16.753 7.99298 14.5453 8.56769C12.3376 9.1424 10.4012 10.4729 9.07317 12.3277L11.1105 14.3651C11.1631 14.4175 11.1989 14.4844 11.2135 14.5573C11.228 14.6301 11.2206 14.7056 11.1921 14.7743C11.1637 14.8429 11.1155 14.9015 11.0537 14.9427C10.9919 14.9839 10.9192 15.0058 10.845 15.0057H5.37506C5.27559 15.0057 5.18019 14.9662 5.10985 14.8958C5.03952 14.8255 5 14.7301 5 14.6306V9.16073C4.99987 9.08645 5.02179 9.0138 5.063 8.952C5.1042 8.8902 5.16283 8.84202 5.23144 8.81358C5.30006 8.78514 5.37557 8.77771 5.44842 8.79224C5.52126 8.80676 5.58815 8.84259 5.64061 8.89518ZM16.6269 12.0052C16.9253 12.0052 17.2115 12.1237 17.4225 12.3348C17.6336 12.5458 17.7521 12.832 17.7521 13.1304V17.6191L20.7946 18.8373C21.0627 18.9542 21.2748 19.1709 21.3859 19.4415C21.4969 19.712 21.4983 20.0152 21.3896 20.2868C21.281 20.5583 21.0708 20.7769 20.8038 20.8962C20.5367 21.0154 20.2337 21.026 19.959 20.9257L16.2084 19.4254C15.9999 19.3417 15.8212 19.1975 15.6953 19.0114C15.5694 18.8254 15.502 18.6059 15.5017 18.3813V13.1304C15.5017 12.832 15.6203 12.5458 15.8313 12.3348C16.0423 12.1237 16.3285 12.0052 16.6269 12.0052Z" fill="#B8B8B8"/>
</svg>
