<svg width="24" height="24" viewBox="0 0 24 24" fill="none" xmlns="http://www.w3.org/2000/svg">
<g clip-path="url(#clip0_411_5197)">
<path fill-rule="evenodd" clip-rule="evenodd" d="M23.9115 10.5495C24.2434 13.274 23.6313 16.03 22.1773 18.3579C20.7232 20.6858 18.5151 22.4449 15.9211 23.3418C13.3271 24.2388 10.504 24.2194 7.92261 23.2869C5.34118 22.3544 3.15744 20.5651 1.7355 18.2175C1.58075 17.9623 1.53371 17.6561 1.60474 17.3662C1.67577 17.0763 1.85905 16.8265 2.11425 16.6717C2.36945 16.517 2.67568 16.47 2.96557 16.541C3.25545 16.612 3.50525 16.7953 3.66 17.0505C4.42596 18.3153 5.46958 19.3894 6.71189 20.1914C7.95419 20.9933 9.36263 21.5023 10.8306 21.6796C12.2987 21.8569 13.7878 21.698 15.1853 21.2149C16.5828 20.7319 17.8522 19.9372 18.8973 18.8912C19.9424 17.8451 20.7359 16.575 21.2178 15.1771C21.6996 13.7791 21.8572 12.2898 21.6785 10.822C21.4999 9.35414 20.9897 7.94615 20.1866 6.70457C19.3835 5.46298 18.3085 4.42033 17.043 3.6555C16.7876 3.50114 16.604 3.25165 16.5325 2.96191C16.4611 2.67216 16.5076 2.3659 16.662 2.1105C16.8164 1.8551 17.0658 1.67147 17.3556 1.60002C17.6453 1.52857 17.9516 1.57514 18.207 1.7295C19.7644 2.67088 21.0873 3.95414 22.0756 5.48218C23.0639 7.01023 23.6917 8.74304 23.9115 10.5495ZM13.5 1.5C13.5 1.89782 13.342 2.27936 13.0607 2.56066C12.7794 2.84196 12.3978 3 12 3C11.6022 3 11.2206 2.84196 10.9393 2.56066C10.658 2.27936 10.5 1.89782 10.5 1.5C10.5 1.10218 10.658 0.720644 10.9393 0.43934C11.2206 0.158035 11.6022 0 12 0C12.3978 0 12.7794 0.158035 13.0607 0.43934C13.342 0.720644 13.5 1.10218 13.5 1.5ZM4.206 7.5C4.30605 7.32934 4.37135 7.14058 4.39815 6.94459C4.42495 6.74859 4.41271 6.54923 4.36215 6.35798C4.31159 6.16673 4.22369 5.98737 4.10353 5.83023C3.98337 5.67309 3.83331 5.54127 3.66199 5.44235C3.49068 5.34344 3.30149 5.27939 3.10532 5.2539C2.90915 5.2284 2.70987 5.24195 2.51896 5.29379C2.32805 5.34562 2.14928 5.4347 1.99294 5.5559C1.8366 5.6771 1.70577 5.82803 1.608 6C1.41223 6.34434 1.36059 6.75213 1.46438 7.1344C1.56816 7.51666 1.81893 7.84236 2.16196 8.04041C2.50499 8.23847 2.91243 8.2928 3.29538 8.19156C3.67832 8.09031 4.00567 7.84171 4.206 7.5ZM1.5 10.5C1.89782 10.5 2.27936 10.658 2.56066 10.9393C2.84196 11.2206 3 11.6022 3 12C3 12.3978 2.84196 12.7794 2.56066 13.0607C2.27936 13.342 1.89782 13.5 1.5 13.5C1.10218 13.5 0.720644 13.342 0.43934 13.0607C0.158035 12.7794 0 12.3978 0 12C0 11.6022 0.158035 11.2206 0.43934 10.9393C0.720644 10.658 1.10218 10.5 1.5 10.5ZM7.5 4.206C7.67197 4.10823 7.8229 3.9774 7.9441 3.82106C8.0653 3.66472 8.15438 3.48595 8.20622 3.29504C8.25805 3.10413 8.2716 2.90485 8.2461 2.70868C8.22061 2.51251 8.15656 2.32332 8.05765 2.15201C7.95873 1.98069 7.82691 1.83063 7.66977 1.71047C7.51263 1.59031 7.33327 1.50241 7.14202 1.45185C6.95077 1.40129 6.75141 1.38905 6.55541 1.41585C6.35942 1.44265 6.17066 1.50795 6 1.608C5.65829 1.80833 5.40969 2.13568 5.30844 2.51862C5.2072 2.90157 5.26153 3.30901 5.45959 3.65204C5.65764 3.99507 5.98334 4.24584 6.3656 4.34962C6.74787 4.45341 7.15566 4.40177 7.5 4.206Z" fill="#54B848"/>
</g>
<defs>
<clipPath id="clip0_411_5197">
<rect width="24" height="24" fill="white"/>
</clipPath>
</defs>
</svg>
