<svg width="125" height="20" viewBox="0 0 125 20" fill="none" xmlns="http://www.w3.org/2000/svg">
<path d="M12.5075 14.3C12.5075 16.874 10.4015 19.422 6.47547 19.422C2.83547 19.422 0.261473 17.394 0.209473 14.404H2.73147C2.88747 15.912 3.95347 17.42 6.47547 17.42C8.76347 17.42 10.1155 16.12 10.1155 14.404C10.1155 9.516 0.313473 12.636 0.313473 5.902C0.313473 2.912 2.73147 0.883999 6.31947 0.883999C9.77747 0.883999 12.0395 2.782 12.3255 5.538H9.72547C9.56947 4.316 8.42547 2.938 6.21547 2.912C4.26547 2.86 2.73147 3.874 2.73147 5.824C2.73147 10.504 12.5075 7.592 12.5075 14.3Z" fill="#2B3674"/>
<path d="M22.0472 6.76C19.7332 6.76 17.8092 8.294 17.5492 11.076H26.5452C26.5712 8.294 24.4912 6.76 22.0472 6.76ZM28.7032 14.846C27.9752 17.446 25.6872 19.474 22.1512 19.474C18.0952 19.474 15.1052 16.614 15.1052 12.09C15.1052 7.592 17.9912 4.758 22.1512 4.758C26.2852 4.758 28.9892 7.67 28.9892 11.57C28.9892 12.09 28.9632 12.506 28.9112 13H17.5232C17.7052 15.886 19.7332 17.472 22.1512 17.472C24.2832 17.472 25.6352 16.38 26.1552 14.846H28.7032Z" fill="#2B3674"/>
<path d="M42.5383 19.24V11.18C42.5383 8.268 40.9523 6.786 38.5603 6.786C36.1423 6.786 34.4783 8.294 34.4783 11.362V19.24H32.1123V4.992H34.4783V7.02C35.4143 5.538 37.1303 4.732 39.0543 4.732C42.3563 4.732 44.8783 6.76 44.8783 10.842V19.24H42.5383Z" fill="#2B3674"/>
<path d="M47.8591 12.064C47.8591 7.618 50.7971 4.758 54.6451 4.758C56.8811 4.758 58.9351 5.902 59.9231 7.54V0H62.3151V19.24H59.9231V16.562C59.0651 18.148 57.2191 19.474 54.6191 19.474C50.7971 19.474 47.8591 16.484 47.8591 12.064ZM59.9231 12.09C59.9231 8.788 57.6871 6.812 55.0871 6.812C52.4871 6.812 50.2771 8.71 50.2771 12.064C50.2771 15.418 52.4871 17.394 55.0871 17.394C57.6871 17.394 59.9231 15.444 59.9231 12.09Z" fill="#2B3674"/>
<path d="M86.5935 0.988V19.24H82.1475V8.294L78.0655 19.24H74.4775L70.3695 8.268V19.24H65.9235V0.988H71.1755L76.2975 13.624L81.3675 0.988H86.5935Z" fill="#2B3674"/>
<path d="M98.4226 19.422C96.7066 19.422 95.1293 19.0233 93.6906 18.226C92.2693 17.4287 91.134 16.3193 90.2846 14.898C89.4526 13.4593 89.0366 11.8473 89.0366 10.062C89.0366 8.27667 89.4526 6.67333 90.2846 5.252C91.134 3.83067 92.2693 2.72133 93.6906 1.924C95.1293 1.12667 96.7066 0.728 98.4226 0.728C100.139 0.728 101.707 1.12667 103.129 1.924C104.567 2.72133 105.694 3.83067 106.509 5.252C107.341 6.67333 107.757 8.27667 107.757 10.062C107.757 11.8473 107.341 13.4593 106.509 14.898C105.677 16.3193 104.55 17.4287 103.129 18.226C101.707 19.0233 100.139 19.422 98.4226 19.422ZM98.4226 15.366C99.8786 15.366 101.04 14.8807 101.907 13.91C102.791 12.9393 103.233 11.6567 103.233 10.062C103.233 8.45 102.791 7.16733 101.907 6.214C101.04 5.24333 99.8786 4.758 98.4226 4.758C96.9493 4.758 95.7706 5.23467 94.8866 6.188C94.02 7.14133 93.5866 8.43267 93.5866 10.062C93.5866 11.674 94.02 12.9653 94.8866 13.936C95.7706 14.8893 96.9493 15.366 98.4226 15.366Z" fill="#2B3674"/>
<path d="M121.28 9.88C122.337 10.1053 123.187 10.634 123.828 11.466C124.469 12.2807 124.79 13.2167 124.79 14.274C124.79 15.7993 124.253 17.0127 123.178 17.914C122.121 18.798 120.639 19.24 118.732 19.24H110.23V0.988H118.446C120.301 0.988 121.748 1.41267 122.788 2.262C123.845 3.11133 124.374 4.264 124.374 5.72C124.374 6.79467 124.088 7.68733 123.516 8.398C122.961 9.10867 122.216 9.60267 121.28 9.88ZM114.676 8.372H117.588C118.316 8.372 118.871 8.216 119.252 7.904C119.651 7.57467 119.85 7.098 119.85 6.474C119.85 5.85 119.651 5.37333 119.252 5.044C118.871 4.71467 118.316 4.55 117.588 4.55H114.676V8.372ZM117.952 15.652C118.697 15.652 119.269 15.4873 119.668 15.158C120.084 14.8113 120.292 14.3173 120.292 13.676C120.292 13.0347 120.075 12.532 119.642 12.168C119.226 11.804 118.645 11.622 117.9 11.622H114.676V15.652H117.952Z" fill="#2B3674"/>
</svg>
