<svg width="24" height="24" viewBox="0 0 24 24" fill="none" xmlns="http://www.w3.org/2000/svg">
<path d="M12.8151 12.1968L5.28308 13.4528C5.19649 13.4673 5.11522 13.5043 5.04746 13.5601C4.97971 13.6159 4.92784 13.6886 4.89708 13.7708L2.30008 20.7278C2.05208 21.3678 2.72108 21.9778 3.33508 21.6708L21.3351 12.6708C21.4598 12.6086 21.5646 12.5128 21.6379 12.3943C21.7112 12.2758 21.75 12.1392 21.75 11.9998C21.75 11.8605 21.7112 11.7239 21.6379 11.6054C21.5646 11.4868 21.4598 11.3911 21.3351 11.3288L3.33508 2.32884C2.72108 2.02184 2.05208 2.63284 2.30008 3.27184L4.89808 10.2288C4.92869 10.3113 4.9805 10.3841 5.04827 10.4401C5.11604 10.4962 5.19737 10.5333 5.28408 10.5478L12.8161 11.8028C12.8624 11.811 12.9044 11.8352 12.9347 11.8712C12.965 11.9072 12.9816 11.9528 12.9816 11.9998C12.9816 12.0469 12.965 12.0925 12.9347 12.1285C12.9044 12.1645 12.8624 12.1887 12.8161 12.1968H12.8151Z" fill="#54B848"/>
</svg>
