<svg width="24" height="25" viewBox="0 0 24 25" fill="none" xmlns="http://www.w3.org/2000/svg">
<path d="M17 14.5C17.2652 14.5 17.5196 14.3946 17.7071 14.2071C17.8946 14.0196 18 13.7652 18 13.5C18 13.2348 17.8946 12.9804 17.7071 12.7929C17.5196 12.6054 17.2652 12.5 17 12.5C16.7348 12.5 16.4804 12.6054 16.2929 12.7929C16.1054 12.9804 16 13.2348 16 13.5C16 13.7652 16.1054 14.0196 16.2929 14.2071C16.4804 14.3946 16.7348 14.5 17 14.5ZM17 18.5C17.2652 18.5 17.5196 18.3946 17.7071 18.2071C17.8946 18.0196 18 17.7652 18 17.5C18 17.2348 17.8946 16.9804 17.7071 16.7929C17.5196 16.6054 17.2652 16.5 17 16.5C16.7348 16.5 16.4804 16.6054 16.2929 16.7929C16.1054 16.9804 16 17.2348 16 17.5C16 17.7652 16.1054 18.0196 16.2929 18.2071C16.4804 18.3946 16.7348 18.5 17 18.5ZM13 13.5C13 13.7652 12.8946 14.0196 12.7071 14.2071C12.5196 14.3946 12.2652 14.5 12 14.5C11.7348 14.5 11.4804 14.3946 11.2929 14.2071C11.1054 14.0196 11 13.7652 11 13.5C11 13.2348 11.1054 12.9804 11.2929 12.7929C11.4804 12.6054 11.7348 12.5 12 12.5C12.2652 12.5 12.5196 12.6054 12.7071 12.7929C12.8946 12.9804 13 13.2348 13 13.5ZM13 17.5C13 17.7652 12.8946 18.0196 12.7071 18.2071C12.5196 18.3946 12.2652 18.5 12 18.5C11.7348 18.5 11.4804 18.3946 11.2929 18.2071C11.1054 18.0196 11 17.7652 11 17.5C11 17.2348 11.1054 16.9804 11.2929 16.7929C11.4804 16.6054 11.7348 16.5 12 16.5C12.2652 16.5 12.5196 16.6054 12.7071 16.7929C12.8946 16.9804 13 17.2348 13 17.5ZM7 14.5C7.26522 14.5 7.51957 14.3946 7.70711 14.2071C7.89464 14.0196 8 13.7652 8 13.5C8 13.2348 7.89464 12.9804 7.70711 12.7929C7.51957 12.6054 7.26522 12.5 7 12.5C6.73478 12.5 6.48043 12.6054 6.29289 12.7929C6.10536 12.9804 6 13.2348 6 13.5C6 13.7652 6.10536 14.0196 6.29289 14.2071C6.48043 14.3946 6.73478 14.5 7 14.5ZM7 18.5C7.26522 18.5 7.51957 18.3946 7.70711 18.2071C7.89464 18.0196 8 17.7652 8 17.5C8 17.2348 7.89464 16.9804 7.70711 16.7929C7.51957 16.6054 7.26522 16.5 7 16.5C6.73478 16.5 6.48043 16.6054 6.29289 16.7929C6.10536 16.9804 6 17.2348 6 17.5C6 17.7652 6.10536 18.0196 6.29289 18.2071C6.48043 18.3946 6.73478 18.5 7 18.5Z" fill="#B8B8B8"/>
<path fill-rule="evenodd" clip-rule="evenodd" d="M7 2.25C7.19891 2.25 7.38968 2.32902 7.53033 2.46967C7.67098 2.61032 7.75 2.80109 7.75 3V3.763C8.412 3.75 9.141 3.75 9.943 3.75H14.056C14.859 3.75 15.588 3.75 16.25 3.763V3C16.25 2.80109 16.329 2.61032 16.4697 2.46967C16.6103 2.32902 16.8011 2.25 17 2.25C17.1989 2.25 17.3897 2.32902 17.5303 2.46967C17.671 2.61032 17.75 2.80109 17.75 3V3.827C18.01 3.847 18.256 3.872 18.489 3.903C19.661 4.061 20.61 4.393 21.359 5.141C22.107 5.89 22.439 6.839 22.597 8.011C22.75 9.151 22.75 10.606 22.75 12.444V14.556C22.75 16.394 22.75 17.85 22.597 18.989C22.439 20.161 22.107 21.11 21.359 21.859C20.61 22.607 19.661 22.939 18.489 23.097C17.349 23.25 15.894 23.25 14.056 23.25H9.944C8.106 23.25 6.65 23.25 5.511 23.097C4.339 22.939 3.39 22.607 2.641 21.859C1.893 21.11 1.561 20.161 1.403 18.989C1.25 17.849 1.25 16.394 1.25 14.556V12.444C1.25 10.606 1.25 9.15 1.403 8.011C1.561 6.839 1.893 5.89 2.641 5.141C3.39 4.393 4.339 4.061 5.511 3.903C5.744 3.872 5.991 3.847 6.25 3.827V3C6.25 2.80109 6.32902 2.61032 6.46967 2.46967C6.61032 2.32902 6.80109 2.25 7 2.25ZM5.71 5.39C4.705 5.525 4.125 5.779 3.702 6.202C3.279 6.625 3.025 7.205 2.89 8.211C2.867 8.381 2.848 8.561 2.832 8.75H21.168C21.152 8.56 21.133 8.381 21.11 8.21C20.975 7.205 20.721 6.625 20.298 6.202C19.875 5.779 19.295 5.525 18.289 5.39C17.262 5.252 15.907 5.25 14 5.25H10C8.093 5.25 6.739 5.252 5.71 5.39ZM2.75 12.5C2.75 11.646 2.75 10.903 2.763 10.25H21.237C21.25 10.903 21.25 11.646 21.25 12.5V14.5C21.25 16.407 21.248 17.762 21.11 18.79C20.975 19.795 20.721 20.375 20.298 20.798C19.875 21.221 19.295 21.475 18.289 21.61C17.262 21.748 15.907 21.75 14 21.75H10C8.093 21.75 6.739 21.748 5.71 21.61C4.705 21.475 4.125 21.221 3.702 20.798C3.279 20.375 3.025 19.795 2.89 18.789C2.752 17.762 2.75 16.407 2.75 14.5V12.5Z" fill="#B8B8B8"/>
</svg>
