<svg width="35" height="36" viewBox="0 0 35 36" fill="none" xmlns="http://www.w3.org/2000/svg">
<path fill-rule="evenodd" clip-rule="evenodd" d="M6 14.8486V21.4014C6 24.492 6 26.0359 6.97269 26.9965C7.85513 27.8681 9.22795 27.9476 11.8173 27.9557C11.6812 27.0463 11.6529 25.9618 11.6449 24.6846C11.6449 24.5547 11.6705 24.426 11.7203 24.3059C11.77 24.1858 11.843 24.0768 11.935 23.9849C12.0269 23.8931 12.1361 23.8203 12.2562 23.7707C12.3764 23.721 12.5051 23.6956 12.6351 23.6958C12.7651 23.6942 12.8942 23.7182 13.0149 23.7665C13.1357 23.8148 13.2457 23.8864 13.3388 23.9772C13.4319 24.068 13.5062 24.1763 13.5574 24.2958C13.6086 24.4154 13.6358 24.5438 13.6374 24.6738C13.6455 26.1073 13.6819 27.1231 13.826 27.8937C13.9648 28.6374 14.1857 29.0658 14.5091 29.3864C14.8768 29.7502 15.3928 29.9859 16.3682 30.1139C17.3706 30.2487 18.6989 30.25 20.6052 30.25H21.9323C23.8386 30.25 25.1669 30.2473 26.1706 30.1153C27.1447 29.9859 27.6606 29.7488 28.0271 29.3864C28.3949 29.0227 28.6347 28.5134 28.7654 27.5515C28.9001 26.5627 28.9028 25.2491 28.9028 23.3684V12.8816C28.9028 10.9995 28.9001 9.68869 28.7654 8.69714C28.6347 7.73657 28.3949 7.22597 28.0284 6.86492C27.6606 6.50117 27.1447 6.26406 26.1693 6.13472C25.1669 6.00269 23.8386 6 21.9323 6H20.6052C18.6989 6 17.3706 6.00269 16.3669 6.13472C15.3928 6.26406 14.8768 6.50117 14.5091 6.86357C14.1857 7.18286 13.9648 7.61263 13.826 8.35629C13.6819 9.1269 13.6455 10.1427 13.6374 11.5762C13.6358 11.7062 13.6086 11.8346 13.5574 11.9542C13.5062 12.0737 13.4319 12.182 13.3388 12.2728C13.2457 12.3636 13.1357 12.4352 13.0149 12.4835C12.8942 12.5318 12.7651 12.5558 12.6351 12.5542C12.5051 12.5544 12.3764 12.529 12.2562 12.4794C12.1361 12.4297 12.0269 12.3569 11.935 12.2651C11.843 12.1732 11.77 12.0642 11.7203 11.9441C11.6705 11.824 11.6449 11.6953 11.6449 11.5654C11.6529 10.2882 11.6812 9.20369 11.8173 8.29432C9.22795 8.3024 7.85647 8.38189 6.97269 9.25354C6 10.2141 6 11.7594 6 14.8486ZM9.27914 18.8202C9.18675 18.7295 9.11337 18.6213 9.06327 18.502C9.01318 18.3826 8.98737 18.2544 8.98737 18.125C8.98737 17.9956 9.01318 17.8674 9.06327 17.748C9.11337 17.6287 9.18675 17.5205 9.27914 17.4298L11.9332 14.8081C12.1211 14.6233 12.3742 14.5198 12.6378 14.5198C12.9014 14.5198 13.1544 14.6233 13.3424 14.8081C13.4347 14.8988 13.5081 15.007 13.5582 15.1263C13.6083 15.2457 13.6341 15.3739 13.6341 15.5033C13.6341 15.6328 13.6083 15.7609 13.5582 15.8803C13.5081 15.9996 13.4347 16.1078 13.3424 16.1985L12.3858 17.1415H21.9323C22.4819 17.1415 22.9292 17.5821 22.9292 18.125C22.9292 18.6679 22.4819 19.1085 21.9323 19.1085H12.3858L13.3424 20.0515C13.4347 20.1422 13.5081 20.2504 13.5582 20.3697C13.6083 20.4891 13.6341 20.6172 13.6341 20.7467C13.6341 20.8761 13.6083 21.0043 13.5582 21.1237C13.5081 21.243 13.4347 21.3512 13.3424 21.4419C13.1544 21.6267 12.9014 21.7302 12.6378 21.7302C12.3742 21.7302 12.1211 21.6267 11.9332 21.4419L9.27914 18.8202Z" fill="#B8B8B8"/>
</svg>
