<svg width="26" height="26" viewBox="0 0 26 26" fill="none" xmlns="http://www.w3.org/2000/svg">
<path d="M12.3605 1C16.1813 1 19.2785 4.0792 19.2785 7.8784C19.2789 8.87389 19.0622 9.85751 18.6436 10.7607C18.2249 11.6639 17.6144 12.4649 16.8545 13.108C17.1785 13.2688 17.4737 13.4296 17.7401 13.5916C18.3137 13.9396 18.9089 14.3716 19.5281 14.8864C19.6116 14.9557 19.6805 15.0409 19.731 15.137C19.7814 15.2331 19.8123 15.3382 19.8219 15.4463C19.8315 15.5544 19.8196 15.6633 19.7869 15.7668C19.7542 15.8703 19.7013 15.9663 19.6313 16.0492C19.4894 16.2175 19.2868 16.3228 19.0675 16.3422C18.8483 16.3615 18.6303 16.2933 18.4613 16.1524C17.9616 15.7298 17.4314 15.3447 16.8749 15.0004C16.3329 14.6808 15.7696 14.3989 15.1889 14.1568C14.2989 14.554 13.335 14.7584 12.3605 14.7568C11.2861 14.7584 10.2261 14.5098 9.26445 14.0308L9.21405 14.0548C6.87405 14.962 5.16645 16.3036 4.06365 18.0844C2.95725 19.8712 2.50485 21.868 2.70765 24.1012C2.71704 24.2095 2.70498 24.3185 2.67217 24.4222C2.63936 24.5258 2.58645 24.6219 2.51646 24.705C2.44646 24.7882 2.36076 24.8567 2.26426 24.9067C2.16776 24.9567 2.06235 24.9872 1.95405 24.9964C1.73561 25.0164 1.51814 24.9489 1.3494 24.8088C1.18066 24.6686 1.07444 24.4672 1.05405 24.2488C0.820053 21.6664 1.35285 19.3132 2.65005 17.2192C3.79005 15.376 5.46645 13.9432 7.65885 12.9208C6.95996 12.28 6.40208 11.5008 6.02071 10.6327C5.63933 9.76457 5.44282 8.82659 5.44365 7.8784C5.44365 4.0792 8.53965 1 12.3605 1ZM21.2417 16.2316C21.6977 16.2316 22.0673 16.6036 22.0673 17.0608V19.1632H24.1697C24.2785 19.1629 24.3863 19.184 24.487 19.2254C24.5876 19.2668 24.6791 19.3277 24.7563 19.4044C24.8334 19.4812 24.8946 19.5725 24.9365 19.673C24.9783 19.7734 24.9999 19.8812 25.0001 19.99C24.9991 20.2094 24.9111 20.4194 24.7554 20.574C24.5997 20.7286 24.389 20.815 24.1697 20.8144H22.0673V22.918C22.0676 23.1374 21.9808 23.3479 21.826 23.5034C21.6712 23.6589 21.461 23.7466 21.2417 23.7472C21.0223 23.7466 20.8121 23.6589 20.6573 23.5034C20.5025 23.3479 20.4157 23.1374 20.4161 22.918V20.8144H18.3137C18.0943 20.815 17.8836 20.7286 17.7279 20.574C17.5722 20.4194 17.4842 20.2094 17.4833 19.99C17.4833 19.534 17.8553 19.1644 18.3137 19.1644L20.4161 19.1632V17.0608C20.4157 16.8414 20.5025 16.6309 20.6573 16.4754C20.8121 16.3199 21.0223 16.2322 21.2417 16.2316ZM12.3617 2.6512C9.45765 2.6512 7.10325 4.9912 7.10325 7.8784C7.10325 10.7656 9.45765 13.1068 12.3605 13.1068C15.2645 13.1068 17.6177 10.7668 17.6177 7.8784C17.6177 4.9912 15.2645 2.6512 12.3617 2.6512Z" fill="#54B848" stroke="#54B848"/>
</svg>
