<svg width="22" height="17" viewBox="0 0 22 17" fill="none" xmlns="http://www.w3.org/2000/svg">
<path d="M5.5 16.4498C3.98333 16.4498 2.68767 15.9248 1.613 14.8748C0.537667 13.8248 0 12.5415 0 11.0248C0 9.7248 0.391667 8.56647 1.175 7.54981C1.95833 6.53314 2.98333 5.88314 4.25 5.5998C4.53333 4.3998 5.24167 3.25814 6.375 2.1748C7.50833 1.09147 8.71667 0.549805 10 0.549805C10.55 0.549805 11.021 0.745471 11.413 1.1368C11.8043 1.5288 12 1.9998 12 2.5498V8.5998L12.9 7.7248C13.0833 7.54147 13.3127 7.4498 13.588 7.4498C13.8627 7.4498 14.1 7.54981 14.3 7.7498C14.4833 7.93314 14.575 8.16647 14.575 8.4498C14.575 8.73314 14.4833 8.96647 14.3 9.14981L11.7 11.7498C11.6 11.8498 11.4917 11.9205 11.375 11.9618C11.2583 12.0038 11.1333 12.0248 11 12.0248C10.8667 12.0248 10.7417 12.0038 10.625 11.9618C10.5083 11.9205 10.4 11.8498 10.3 11.7498L7.7 9.14981C7.51667 8.96647 7.421 8.73714 7.413 8.4618C7.40433 8.18714 7.5 7.9498 7.7 7.7498C7.88333 7.56647 8.11233 7.47047 8.387 7.4618C8.66233 7.4538 8.9 7.54147 9.1 7.7248L10 8.5998V2.5498C8.73333 2.78314 7.75 3.39547 7.05 4.3868C6.35 5.3788 6 6.39981 6 7.4498H5.5C4.53333 7.4498 3.70833 7.79147 3.025 8.4748C2.34167 9.15814 2 9.98314 2 10.9498C2 11.9165 2.34167 12.7415 3.025 13.4248C3.70833 14.1081 4.53333 14.4498 5.5 14.4498H17.5C18.2 14.4498 18.7917 14.2081 19.275 13.7248C19.7583 13.2415 20 12.6498 20 11.9498C20 11.2498 19.7583 10.6581 19.275 10.1748C18.7917 9.69147 18.2 9.4498 17.5 9.4498H16V7.4498C16 6.6498 15.8167 5.9038 15.45 5.2118C15.0833 4.52047 14.6 3.93314 14 3.4498V1.1248C15.2333 1.70814 16.2083 2.5708 16.925 3.7128C17.6417 4.85414 18 6.0998 18 7.4498C19.15 7.58314 20.1043 8.07881 20.863 8.93681C21.621 9.79547 22 10.7998 22 11.9498C22 13.1998 21.5627 14.2625 20.688 15.1378C19.8127 16.0125 18.75 16.4498 17.5 16.4498H5.5Z" fill="#54B848"/>
</svg>
