<svg width="16" height="20" viewBox="0 0 16 20" fill="none" xmlns="http://www.w3.org/2000/svg">
<path d="M13.7495 12C14.045 12 14.3375 12.0582 14.6105 12.1713C14.8835 12.2843 15.1315 12.4501 15.3405 12.659C15.5494 12.8679 15.7151 13.116 15.8282 13.389C15.9413 13.6619 15.9995 13.9545 15.9995 14.25V15.154C15.9996 15.6946 15.8829 16.2287 15.6573 16.72C15.4317 17.2112 15.1026 17.6478 14.6925 18C13.1275 19.344 10.8865 20 7.99649 20C5.10649 20 2.86849 19.344 1.30649 18C0.89695 17.6481 0.568241 17.2119 0.342839 16.7212C0.117437 16.2305 0.000658319 15.697 0.000488281 15.157V14.249C0.000753421 13.6524 0.237923 13.0804 0.659851 12.6587C1.08178 12.2369 1.65392 12 2.25049 12H13.7495ZM7.89649 0.00600004L7.99649 0C8.17773 7.6429e-06 8.35283 0.0656426 8.48942 0.184767C8.62601 0.303891 8.71484 0.468446 8.73949 0.648L8.74649 0.75L8.74549 1.499H12.2455C12.8422 1.499 13.4145 1.73605 13.8365 2.15801C14.2584 2.57997 14.4955 3.15226 14.4955 3.749V8.254C14.4955 8.85074 14.2584 9.42303 13.8365 9.84499C13.4145 10.2669 12.8422 10.504 12.2455 10.504H3.74549C3.14875 10.504 2.57645 10.2669 2.1545 9.84499C1.73254 9.42303 1.49549 8.85074 1.49549 8.254V3.75C1.49549 3.45444 1.55372 3.16178 1.66685 2.88873C1.77999 2.61568 1.94581 2.3676 2.15485 2.15866C2.36389 1.94971 2.61205 1.784 2.88514 1.67098C3.15824 1.55797 3.45093 1.49987 3.74649 1.5L7.24649 1.499V0.75C7.24653 0.568612 7.3123 0.393385 7.43163 0.256774C7.55096 0.120164 7.71575 0.0314269 7.89549 0.00699997L7.99649 0L7.89449 0.00699997L7.89649 0.00600004ZM5.74549 4.5C5.57726 4.49327 5.40941 4.52059 5.252 4.58032C5.09459 4.64005 4.95088 4.73097 4.82947 4.84762C4.70806 4.96426 4.61147 5.10423 4.54549 5.25912C4.47951 5.41401 4.4455 5.58064 4.4455 5.749C4.4455 5.91736 4.47951 6.08399 4.54549 6.23888C4.61147 6.39377 4.70806 6.53374 4.82947 6.65038C4.95088 6.76703 5.09459 6.85794 5.252 6.91768C5.40941 6.97741 5.57726 7.00473 5.74549 6.998C6.06809 6.98509 6.37319 6.84785 6.59688 6.61503C6.82057 6.38221 6.9455 6.07187 6.9455 5.749C6.9455 5.42613 6.82057 5.11579 6.59688 4.88297C6.37319 4.65015 6.06809 4.51291 5.74549 4.5ZM10.2385 4.5C10.0703 4.49327 9.90241 4.52059 9.745 4.58032C9.58759 4.64005 9.44388 4.73097 9.32247 4.84762C9.20106 4.96426 9.10447 5.10423 9.03849 5.25912C8.97251 5.41401 8.9385 5.58064 8.9385 5.749C8.9385 5.91736 8.97251 6.08399 9.03849 6.23888C9.10447 6.39377 9.20106 6.53374 9.32247 6.65038C9.44388 6.76703 9.58759 6.85794 9.745 6.91768C9.90241 6.97741 10.0703 7.00473 10.2385 6.998C10.5611 6.98509 10.8662 6.84785 11.0899 6.61503C11.3136 6.38221 11.4385 6.07187 11.4385 5.749C11.4385 5.42613 11.3136 5.11579 11.0899 4.88297C10.8662 4.65015 10.5611 4.51291 10.2385 4.5Z" fill="#54B848"/>
</svg>
